# xmcd
#
# Track frame offsets:
#	150
#	18573
#	36120
#	52086
#	67695
#	85464
#	99251
#	113037
#	129411
#	146896
#	166029
#	182618
#	197971
#	215735
#	234820
#	249499
#	265966
#	280594
#	293600
#
# Disc length: 4051 seconds
#
# Revision: 1
# Processed by: cddbd v1.5.2PL0 Copyright (c) Steve Scherf et al.
# Submitted via: audiograbber 1.83.01
#
DISCID=0c0fd113
DTITLE=Various Artist - CDX Volume 559 (November 19, 2012)
DYEAR=2012
DGENRE=Country
TTITLE0=Kelly Clarkson - Don't Rush (featuring Vince Gill)
TTITLE1=George Strait - Give It All We Got Tonight
TTITLE2=Cledus T. Judd - Honeymoon
TTITLE3=Toby Keith - Hope On The Rocks 
TTITLE4=Lee Brice - I Drive Your Truck
TTITLE5=Big and Rich - Party Like Cowboyz (Single Edit)
TTITLE6=Big and RIch - Party Like Cowboyz (Alt Intro)
TTITLE7=Big and Rich - Party Like Cowboyz (Galactic Version)
TTITLE8=Aaron Watson - Lips
TTITLE9=Jonmark Stone - Another Sad Song 
TTITLE10=Chantal Kuegle - Never Alone 
TTITLE11=Hannah Bethel - No Where Left to Roam 
TTITLE12=Drankmore - You Got To Me
TTITLE13=Terry Bradshaw - Lights Of Louisiana
TTITLE14=Lorrie Morgan - Wrapped Up In Love
TTITLE15=Doug Wayne - Almost Time For Christmas
TTITLE16=Paul Lovelace - Christmas Every Day With You
TTITLE17=4 Sisters and A Cousin - White Christmas
TTITLE18=Lizzie Sider - Winter Wonderland 
EXTD=
EXTT0=
EXTT1=
EXTT2=
EXTT3=
EXTT4=
EXTT5=
EXTT6=
EXTT7=
EXTT8=
EXTT9=
EXTT10=
EXTT11=
EXTT12=
EXTT13=
EXTT14=
EXTT15=
EXTT16=
EXTT17=
EXTT18=
PLAYORDER=
